<svg xmlns="http://www.w3.org/2000/svg" width="64" height="80" fill="none" viewBox="0 0 64 80"><path fill="#6B7AAB" d="M0 8C0 3.58172 3.58172 0 8 0H37.3972C39.3933 0 41.3173 0.746214 42.7914 2.09212L52 10.5L61.8784 21.2016C63.2425 22.6794 64 24.6168 64 26.6279V72C64 76.4183 60.4183 80 56 80H8C3.58172 80 0 76.4183 0 72V8Z"/><path fill="#2F3854" d="M0 8C0 3.58172 3.58172 0 8 0H37C41.4183 0 45 3.58172 45 8V11C45 15.4183 48.5817 19 53 19H56C60.4183 19 64 22.5817 64 27V72C64 76.4183 60.4183 80 56 80H8C3.58172 80 0 76.4183 0 72V8Z"/><rect width="44" height="4" x="10" y="27" fill="#6B7AAB" rx="2"/><rect width="36" height="4" x="10" y="37" fill="#6B7AAB" rx="2"/><rect width="28" height="4" x="10" y="47" fill="#6B7AAB" rx="2"/></svg>